<?xml version="1.0" encoding="utf-8"?>
<!-- Generator: Adobe Illustrator 27.0.0, SVG Export Plug-In . SVG Version: 6.00 Build 0)  -->
<svg version="1.1" id="Слой_1" xmlns="http://www.w3.org/2000/svg" xmlns:xlink="http://www.w3.org/1999/xlink" x="0px" y="0px"
	 viewBox="0 0 11.3 11.3" style="enable-background:new 0 0 11.3 11.3;" xml:space="preserve">
<style type="text/css">
	.st0{fill:#FFFFFF;filter:url(#Adobe_OpacityMaskFilter);}
	.st1{mask:url(#mask0_186_615_00000104688763670698106390000005658931046263613113_);}
	.st2{fill:#575757;}
</style>
<defs>
	<filter id="Adobe_OpacityMaskFilter" filterUnits="userSpaceOnUse" x="2.2" y="2.8" width="6.9" height="5.7">
		<feColorMatrix  type="matrix" values="1 0 0 0 0  0 1 0 0 0  0 0 1 0 0  0 0 0 1 0"/>
	</filter>
</defs>
<mask maskUnits="userSpaceOnUse" x="2.2" y="2.8" width="6.9" height="5.7" id="mask0_186_615_00000104688763670698106390000005658931046263613113_">
	<path class="st0" d="M8.6,0H2.7C1.2,0,0,1.2,0,2.7v5.8c0,1.5,1.2,2.7,2.7,2.7h5.8c1.5,0,2.7-1.2,2.7-2.7V2.7C11.3,1.2,10.1,0,8.6,0
		z"/>
</mask>
<g class="st1">
	<path class="st2" d="M7,5.4H3.7V4.1H7c0.2,0,0.3,0,0.4,0.1c0.1,0.1,0.1,0.2,0.1,0.3V5c0,0.2,0,0.3-0.1,0.3C7.3,5.4,7.2,5.4,7,5.4
		L7,5.4z M7.2,2.8h-5v5.7h1.4V6.7h2.6l1.2,1.8h1.6L7.7,6.6c0.5-0.1,0.7-0.2,0.9-0.5S8.9,5.5,8.9,5V4.5c0-0.3,0-0.6-0.1-0.8
		C8.8,3.6,8.7,3.4,8.5,3.2C8.4,3.1,8.2,3,8,2.9C7.8,2.9,7.5,2.8,7.2,2.8L7.2,2.8z"/>
</g>
<path class="st2" d="M8.6,11.3H2.7C1.2,11.3,0,10.1,0,8.6V2.7C0,1.2,1.2,0,2.7,0h5.8c1.5,0,2.7,1.2,2.7,2.7v5.8
	C11.3,10.1,10.1,11.3,8.6,11.3z M2.7,0.2c-1.4,0-2.6,1.2-2.6,2.6v5.8c0,1.4,1.2,2.6,2.6,2.6h5.8c1.4,0,2.6-1.2,2.6-2.6V2.7
	c0-1.4-1.2-2.6-2.6-2.6H2.7z"/>
<path class="st2" d="M8.6,0.2H5.7c0,0.7,0.2,1.4,0.4,2.1h0.5h0.6c0.4,0,0.7,0,0.9,0.1l0,0l0,0c0.3,0.1,0.5,0.2,0.7,0.4l0,0l0,0
	C9.2,3,9.3,3.3,9.4,3.6c0.1,0.3,0.1,0.6,0.1,0.9V5c0,0.1,0,0.3,0,0.4c0.5,0.2,1.1,0.3,1.6,0.3V2.7C11.2,1.3,10,0.2,8.6,0.2z"/>
</svg>
