<svg width="136" height="27" viewBox="0 0 136 27" fill="none" xmlns="http://www.w3.org/2000/svg">
<path d="M17.7167 0.460892V21H12.8227V4.43232H5.20072V21H0.306638V0.460892H17.7167ZM19.8683 26.7766V5.59567H24.7223V8.23326H24.8727C25.0733 7.76525 25.3575 7.31395 25.7252 6.87936C26.0996 6.44478 26.5743 6.09043 27.1493 5.8163C27.731 5.5355 28.4263 5.39509 29.2353 5.39509C30.305 5.39509 31.3046 5.6759 32.2339 6.23752C33.1699 6.79913 33.9255 7.66496 34.5004 8.83499C35.0754 10.005 35.3629 11.496 35.3629 13.3079C35.3629 15.0529 35.0855 16.5138 34.5305 17.6905C33.9823 18.8672 33.2401 19.7497 32.3041 20.3381C31.3748 20.9265 30.3418 21.2206 29.2052 21.2206C28.4296 21.2206 27.7577 21.0936 27.1894 20.8395C26.6211 20.5855 26.1431 20.2512 25.7553 19.8367C25.3742 19.4221 25.08 18.9775 24.8727 18.5028H24.7724V26.7766H19.8683ZM24.6722 13.2978C24.6722 14.1269 24.7825 14.849 25.0031 15.4641C25.2304 16.0792 25.5547 16.5572 25.9759 16.8982C26.4038 17.2325 26.9153 17.3996 27.5103 17.3996C28.1121 17.3996 28.6235 17.2325 29.0447 16.8982C29.466 16.5572 29.7835 16.0792 29.9975 15.4641C30.2181 14.849 30.3284 14.1269 30.3284 13.2978C30.3284 12.4688 30.2181 11.75 29.9975 11.1416C29.7835 10.5332 29.466 10.0619 29.0447 9.72756C28.6302 9.39326 28.1187 9.22612 27.5103 9.22612C26.9086 9.22612 26.3971 9.38992 25.9759 9.71753C25.5547 10.0451 25.2304 10.5132 25.0031 11.1216C24.7825 11.73 24.6722 12.4554 24.6722 13.2978ZM43.429 21.2908C41.811 21.2908 40.4204 20.9599 39.257 20.298C38.1004 19.6294 37.2078 18.7 36.5793 17.51C35.9575 16.3132 35.6466 14.9259 35.6466 13.348C35.6466 11.7634 35.9575 10.3761 36.5793 9.186C37.2078 7.98922 38.1004 7.05988 39.257 6.39798C40.4204 5.72939 41.811 5.39509 43.429 5.39509C45.047 5.39509 46.4344 5.72939 47.591 6.39798C48.7544 7.05988 49.6469 7.98922 50.2687 9.186C50.8972 10.3761 51.2114 11.7634 51.2114 13.348C51.2114 14.9259 50.8972 16.3132 50.2687 17.51C49.6469 18.7 48.7544 19.6294 47.591 20.298C46.4344 20.9599 45.047 21.2908 43.429 21.2908ZM43.4591 17.5902C44.0475 17.5902 44.5456 17.4097 44.9534 17.0486C45.3613 16.6876 45.6722 16.1861 45.8861 15.5443C46.1067 14.9025 46.2171 14.1603 46.2171 13.3179C46.2171 12.4621 46.1067 11.7133 45.8861 11.0714C45.6722 10.4296 45.3613 9.92814 44.9534 9.5671C44.5456 9.20606 44.0475 9.02554 43.4591 9.02554C42.8507 9.02554 42.3359 9.20606 41.9147 9.5671C41.5002 9.92814 41.1826 10.4296 40.9619 11.0714C40.748 11.7133 40.641 12.4621 40.641 13.3179C40.641 14.1603 40.748 14.9025 40.9619 15.5443C41.1826 16.1861 41.5002 16.6876 41.9147 17.0486C42.3359 17.4097 42.8507 17.5902 43.4591 17.5902ZM50.4547 21L55.5593 12.9167L50.4647 5.59567H56.0407L59.6611 11.4325H60.1124V5.59567H65.0166V11.4325H65.4578L69.0782 5.59567H74.6543L69.5697 12.9167L74.6643 21H68.9579L65.4177 15.1833H65.0166V21H60.1124V15.1833H59.7113L56.1611 21H50.4547ZM79.3056 21.2608C78.3227 21.2608 77.4502 21.0969 76.688 20.7693C75.9325 20.435 75.3341 19.9336 74.8929 19.265C74.4583 18.5897 74.241 17.744 74.241 16.7277C74.241 15.8719 74.3914 15.1498 74.6923 14.5615C74.9932 13.9731 75.4077 13.4951 75.9359 13.1273C76.4641 12.7596 77.0725 12.4822 77.7611 12.2949C78.4498 12.1011 79.1852 11.9707 79.9675 11.9038C80.8433 11.8236 81.5487 11.74 82.0836 11.6531C82.6184 11.5595 83.0062 11.4291 83.2469 11.262C83.4943 11.0881 83.618 10.8441 83.618 10.5299V10.4797C83.618 9.96491 83.4408 9.5671 83.0865 9.28629C82.7321 9.00548 82.2541 8.86508 81.6523 8.86508C81.0038 8.86508 80.4823 9.00548 80.0878 9.28629C79.6934 9.5671 79.4426 9.95488 79.3357 10.4496L74.8126 10.2892C74.9464 9.35315 75.2907 8.51741 75.8456 7.78196C76.4072 7.03983 77.1761 6.45815 78.1523 6.03694C79.1351 5.60904 80.3151 5.39509 81.6924 5.39509C82.6753 5.39509 83.5812 5.5121 84.4103 5.7461C85.2393 5.97342 85.9614 6.30772 86.5765 6.74899C87.1916 7.18357 87.6663 7.71845 88.0006 8.35361C88.3416 8.98877 88.5121 9.71419 88.5121 10.5299V21H83.8988V18.8538H83.7784C83.5043 19.3753 83.1533 19.8166 82.7254 20.1776C82.3042 20.5387 81.8061 20.8095 81.2311 20.99C80.6628 21.1705 80.021 21.2608 79.3056 21.2608ZM80.8199 18.0515C81.3481 18.0515 81.8228 17.9445 82.244 17.7306C82.6719 17.5166 83.0129 17.2225 83.267 16.8481C83.521 16.467 83.6481 16.0257 83.6481 15.5242V14.06C83.5077 14.1336 83.3372 14.2004 83.1366 14.2606C82.9427 14.3208 82.7288 14.3776 82.4948 14.4311C82.2607 14.4846 82.0201 14.5314 81.7727 14.5715C81.5253 14.6116 81.2879 14.6484 81.0606 14.6818C80.5993 14.7554 80.2048 14.869 79.8772 15.0228C79.5563 15.1766 79.3089 15.3772 79.1351 15.6245C78.9679 15.8652 78.8844 16.1527 78.8844 16.487C78.8844 16.9951 79.0649 17.3829 79.4259 17.6504C79.7936 17.9178 80.2583 18.0515 80.8199 18.0515ZM89.8162 26.7766V5.59567H94.6702V8.23326H94.8206C95.0212 7.76525 95.3054 7.31395 95.6731 6.87936C96.0475 6.44478 96.5222 6.09043 97.0972 5.8163C97.6788 5.5355 98.3742 5.39509 99.1832 5.39509C100.253 5.39509 101.252 5.6759 102.182 6.23752C103.118 6.79913 103.873 7.66496 104.448 8.83499C105.023 10.005 105.311 11.496 105.311 13.3079C105.311 15.0529 105.033 16.5138 104.478 17.6905C103.93 18.8672 103.188 19.7497 102.252 20.3381C101.323 20.9265 100.29 21.2206 99.1531 21.2206C98.3775 21.2206 97.7056 21.0936 97.1373 20.8395C96.569 20.5855 96.0909 20.2512 95.7032 19.8367C95.3221 19.4221 95.0279 18.9775 94.8206 18.5028H94.7203V26.7766H89.8162ZM94.62 13.2978C94.62 14.1269 94.7304 14.849 94.951 15.4641C95.1783 16.0792 95.5026 16.5572 95.9238 16.8982C96.3517 17.2325 96.8632 17.3996 97.4582 17.3996C98.0599 17.3996 98.5714 17.2325 98.9926 16.8982C99.4138 16.5572 99.7314 16.0792 99.9454 15.4641C100.166 14.849 100.276 14.1269 100.276 13.2978C100.276 12.4688 100.166 11.75 99.9454 11.1416C99.7314 10.5332 99.4138 10.0619 98.9926 9.72756C98.5781 9.39326 98.0666 9.22612 97.4582 9.22612C96.8565 9.22612 96.345 9.38992 95.9238 9.71753C95.5026 10.0451 95.1783 10.5132 94.951 11.1216C94.7304 11.73 94.62 12.4554 94.62 13.2978ZM106.186 21V5.59567H111.09V11.3322H112.173L115.914 5.59567H121.591L116.406 13.3079L121.641 21H115.894L112.514 15.8853H111.09V21H106.186ZM125.823 21.2608C124.84 21.2608 123.968 21.0969 123.206 20.7693C122.45 20.435 121.852 19.9336 121.41 19.265C120.976 18.5897 120.759 17.744 120.759 16.7277C120.759 15.8719 120.909 15.1498 121.21 14.5615C121.511 13.9731 121.925 13.4951 122.453 13.1273C122.982 12.7596 123.59 12.4822 124.279 12.2949C124.967 12.1011 125.703 11.9707 126.485 11.9038C127.361 11.8236 128.066 11.74 128.601 11.6531C129.136 11.5595 129.524 11.4291 129.764 11.262C130.012 11.0881 130.136 10.8441 130.136 10.5299V10.4797C130.136 9.96491 129.958 9.5671 129.604 9.28629C129.25 9.00548 128.772 8.86508 128.17 8.86508C127.521 8.86508 127 9.00548 126.605 9.28629C126.211 9.5671 125.96 9.95488 125.853 10.4496L121.33 10.2892C121.464 9.35315 121.808 8.51741 122.363 7.78196C122.925 7.03983 123.694 6.45815 124.67 6.03694C125.653 5.60904 126.833 5.39509 128.21 5.39509C129.193 5.39509 130.099 5.5121 130.928 5.7461C131.757 5.97342 132.479 6.30772 133.094 6.74899C133.709 7.18357 134.184 7.71845 134.518 8.35361C134.859 8.98877 135.03 9.71419 135.03 10.5299V21H130.416V18.8538H130.296C130.022 19.3753 129.671 19.8166 129.243 20.1776C128.822 20.5387 128.324 20.8095 127.749 20.99C127.18 21.1705 126.539 21.2608 125.823 21.2608ZM127.338 18.0515C127.866 18.0515 128.34 17.9445 128.762 17.7306C129.19 17.5166 129.53 17.2225 129.785 16.8481C130.039 16.467 130.166 16.0257 130.166 15.5242V14.06C130.025 14.1336 129.855 14.2004 129.654 14.2606C129.46 14.3208 129.246 14.3776 129.012 14.4311C128.778 14.4846 128.538 14.5314 128.29 14.5715C128.043 14.6116 127.806 14.6484 127.578 14.6818C127.117 14.7554 126.722 14.869 126.395 15.0228C126.074 15.1766 125.826 15.3772 125.653 15.6245C125.486 15.8652 125.402 16.1527 125.402 16.487C125.402 16.9951 125.582 17.3829 125.943 17.6504C126.311 17.9178 126.776 18.0515 127.338 18.0515Z" fill="white"/>
</svg>
