<svg width="12" height="12" viewBox="0 0 12 12" fill="none" xmlns="http://www.w3.org/2000/svg">
<mask id="mask0_100_1600" style="mask-type:luminance" maskUnits="userSpaceOnUse" x="0" y="0" width="12" height="12">
<path d="M8.58586 0.666504H2.74747C1.23009 0.666504 0 1.89659 0 3.41398V9.25236C0 10.7698 1.23009 11.9998 2.74747 11.9998H8.58586C10.1032 11.9998 11.3333 10.7698 11.3333 9.25236V3.41398C11.3333 1.89659 10.1032 0.666504 8.58586 0.666504Z" fill="white"/>
</mask>
<g mask="url(#mask0_100_1600)">
<path d="M7.00101 6.0749H3.65252V4.7501H7.00101C7.19677 4.7501 7.33242 4.78444 7.40111 4.84369C7.46894 4.90293 7.51187 5.01369 7.51187 5.1751V5.65076C7.51187 5.82076 7.4698 5.93151 7.40111 5.99076C7.33328 6.05 7.19677 6.07576 7.00101 6.07576V6.0749ZM7.23111 3.5H2.23242V9.16581H3.65252V7.32242H6.26949L7.51101 9.16581H9.10111L7.73166 7.31384C8.23651 7.23914 8.46318 7.0846 8.65035 6.8296C8.83752 6.5746 8.93111 6.16677 8.93111 5.62328V5.19828C8.93111 4.87545 8.89677 4.62045 8.83752 4.42556C8.77828 4.2298 8.67611 4.0598 8.53101 3.90783C8.37818 3.76359 8.20818 3.66141 8.00384 3.59359C7.79949 3.53434 7.54449 3.5 7.23025 3.5H7.23111Z" fill="#916D00"/>
<path d="M17.0002 0.666667C17.0002 3.79621 14.4631 6.33333 11.3335 6.33333C10.6973 6.33333 10.0852 6.22859 9.5142 6.0354C9.52622 5.90061 9.53137 5.76323 9.53137 5.62414V5.19914C9.53137 4.83854 9.49359 4.52 9.41117 4.25126C9.32273 3.96106 9.17076 3.71035 8.96642 3.49485L8.95526 3.48283L8.94324 3.47167C8.72602 3.26646 8.4796 3.11965 8.19369 3.02348L8.18253 3.02005L8.17137 3.01662C7.8992 2.93763 7.58496 2.89899 7.2295 2.89899H6.62849H6.12278C5.82915 2.21384 5.66602 1.45914 5.66602 0.665808C5.66687 -2.46288 8.204 -5 11.3335 -5C14.4631 -5 17.0002 -2.46288 17.0002 0.666667Z" fill="#916D00"/>
</g>
</svg>
