<svg width="17" height="17" viewBox="0 0 17 17" fill="none" xmlns="http://www.w3.org/2000/svg">
<mask id="mask0_180_376" style="mask-type:luminance" maskUnits="userSpaceOnUse" x="0" y="5" width="12" height="12">
<path d="M8.58586 5.6665H2.74747C1.23009 5.6665 0 6.89659 0 8.41398V14.2524C0 15.7698 1.23009 16.9998 2.74747 16.9998H8.58586C10.1032 16.9998 11.3333 15.7698 11.3333 14.2524V8.41398C11.3333 6.89659 10.1032 5.6665 8.58586 5.6665Z" fill="white"/>
</mask>
<g mask="url(#mask0_180_376)">
<path d="M7.00101 11.0749H3.65252V9.7501H7.00101C7.19677 9.7501 7.33242 9.78444 7.40111 9.84369C7.46894 9.90293 7.51187 10.0137 7.51187 10.1751V10.6508C7.51187 10.8208 7.4698 10.9315 7.40111 10.9908C7.33328 11.05 7.19677 11.0758 7.00101 11.0758V11.0749ZM7.23111 8.5H2.23242V14.1658H3.65252V12.3224H6.26949L7.51101 14.1658H9.10111L7.73166 12.3138C8.23651 12.2391 8.46318 12.0846 8.65035 11.8296C8.83752 11.5746 8.93111 11.1668 8.93111 10.6233V10.1983C8.93111 9.87545 8.89677 9.62045 8.83752 9.42556C8.77828 9.2298 8.67611 9.0598 8.53101 8.90783C8.37818 8.76359 8.20818 8.66141 8.00384 8.59359C7.79949 8.53434 7.54449 8.5 7.23025 8.5H7.23111Z" fill="#575757"/>
<path d="M17.0002 5.66667C17.0002 8.79621 14.4631 11.3333 11.3335 11.3333C10.6973 11.3333 10.0852 11.2286 9.5142 11.0354C9.52622 10.9006 9.53137 10.7632 9.53137 10.6241V10.1991C9.53137 9.83854 9.49359 9.52 9.41117 9.25126C9.32273 8.96106 9.17076 8.71035 8.96642 8.49485L8.95526 8.48283L8.94324 8.47167C8.72602 8.26646 8.4796 8.11965 8.19369 8.02348L8.18253 8.02005L8.17137 8.01662C7.8992 7.93763 7.58496 7.89899 7.2295 7.89899H6.62849H6.12278C5.82915 7.21384 5.66602 6.45914 5.66602 5.66581C5.66687 2.53712 8.204 0 11.3335 0C14.4631 0 17.0002 2.53712 17.0002 5.66667Z" fill="#575757"/>
</g>
<path d="M8.58586 16.9998H2.74747C1.23207 16.9998 0 15.7669 0 14.2524V8.41398C0 6.89857 1.23207 5.6665 2.74747 5.6665H8.58586C10.1004 5.6665 11.3333 6.89857 11.3333 8.41398V14.2524C11.3333 15.7669 10.1004 16.9998 8.58586 16.9998ZM2.74747 5.83822C1.32737 5.83822 0.171717 6.99388 0.171717 8.41398V14.2524C0.171717 15.6725 1.32737 16.8281 2.74747 16.8281H8.58586C10.006 16.8281 11.1616 15.6725 11.1616 14.2524V8.41398C11.1616 6.99388 10.006 5.83822 8.58586 5.83822H2.74747Z" fill="#575757"/>
</svg>
