<svg width="12" height="10" viewBox="0 0 12 10" fill="none" xmlns="http://www.w3.org/2000/svg">
<path d="M10.7036 8.99505C10.5289 9.53655 10.3445 10 9.99031 10C9.63612 10 9.25281 9.87804 8.87435 9.60485C8.49589 9.33166 5.97769 7.63397 5.62835 7.41444C5.32267 7.2193 4.99758 6.73634 5.45367 6.26801C5.83213 5.88262 8.68027 3.10192 8.92772 2.85312C9.17032 2.6092 8.93257 2.2921 8.6366 2.5409C8.33577 2.78482 4.18244 5.58016 3.82339 5.80456C3.48375 6.01433 2.87725 6.14605 2.34353 5.9997C1.7904 5.84847 0.853956 5.56064 0.485202 5.42892C0.126153 5.30209 0 5.17525 0 4.95572C0 4.6435 0.436682 4.42885 0.902476 4.22883C1.38768 4.02394 9.83505 0.418793 10.4998 0.179751C10.9801 0.00412808 11.3974 -0.0641697 11.6788 0.0724259C11.9117 0.184629 12.0282 0.433429 11.9942 0.809066C11.8777 2.05306 10.9122 8.36085 10.7084 8.99505H10.7036Z" fill="#575757"/>
</svg>
