<svg width="15" height="10" viewBox="0 0 15 10" fill="none" xmlns="http://www.w3.org/2000/svg">
<path d="M14.6867 1.56182C14.514 0.946715 14.0059 0.463733 13.3601 0.299239C12.1915 0 7.50046 0 7.50046 0C7.50046 0 2.80946 0 1.63992 0.298364C0.994059 0.462858 0.486924 0.946714 0.314203 1.56094C0 2.67565 0 5.00044 0 5.00044C0 5.00044 0 7.32523 0.313285 8.43906C0.486005 9.05416 0.994059 9.53714 1.639 9.70164C2.80854 10 7.49954 10 7.49954 10C7.49954 10 12.1905 10 13.3601 9.70164C14.0059 9.53714 14.5131 9.05329 14.6867 8.43906C15 7.32523 15 5.00044 15 5.00044C15 5.00044 14.9991 2.67565 14.6867 1.56182ZM5.99835 7.14323V2.85764L9.89557 5.00044L5.99835 7.14323Z" fill="#575757"/>
</svg>
